<svg id="Capa_1" enable-background="new 0 0 512 512" height="512" viewBox="0 0 512 512" width="512" xmlns="http://www.w3.org/2000/svg"><g><g><g><path d="m454.269 409.227v-312.902l-12.78-17.986c-1.761-.473-3.498-.718-5.352-.718h-180.518c-11.601 0-21.005 9.404-21.005 21.005v310.6c0 11.601 9.404 21.005 21.005 21.005h177.645c11.601.001 21.005-9.403 21.005-21.004z" fill="#f4fbff"/><path d="m454.511 148.133c-2.903 0-5.584-.95-7.75-2.556v263.65c0 11.601-9.404 21.005-21.005 21.005h65.238c11.601 0 21.005-9.404 21.005-21.005v-255.742c0-1.822-.237-3.62-.693-5.352z" fill="#e4f6ff"/><path d="m505.848 138.633-54.859-54.859c-2.649-2.649-5.939-4.495-9.5-5.434v56.771c0 7.192 5.83 13.022 13.022 13.022h56.771c-.94-3.561-2.785-6.851-5.434-9.5z" fill="#e28086"/><g><g><g><path d="m338.499 281.504c-24.509 0-44.449-19.94-44.449-44.449s19.94-44.449 44.449-44.449c8.906 0 17.502 2.627 24.858 7.596 3.536 2.389 4.466 7.192 2.077 10.727-2.389 3.536-7.191 4.465-10.728 2.077-4.791-3.236-10.395-4.948-16.207-4.948-15.988 0-28.996 13.007-28.996 28.996s13.008 28.996 28.996 28.996c5.989 0 11.042-1.795 15.016-5.334.772-.688 1.513-1.453 2.202-2.274 2.743-3.268 7.617-3.693 10.886-.95 3.268 2.743 3.694 7.617.95 10.885-1.167 1.389-2.432 2.694-3.76 3.877-6.793 6.052-15.539 9.25-25.294 9.25z" fill="#bed8fb"/></g></g><g><g><path d="m418.731 282.021c-.008 0-.016 0-.024 0-3.291-.01-6.214-2.104-7.283-5.215l-25.564-74.391c-1.387-4.035.761-8.432 4.796-9.818 4.034-1.387 8.431.76 9.818 4.796l18.33 53.339 18.742-53.471c1.411-4.028 5.821-6.146 9.847-4.736 4.027 1.411 6.147 5.821 4.735 9.847l-26.106 74.479c-1.085 3.097-4.01 5.17-7.291 5.17z" fill="#bed8fb"/></g></g></g></g><g><g><path d="m226.932 24.98h-77.423c-31.17 0-56.439 25.269-56.439 56.439v54.439l9.272 8.223h129.55v-114.088z" fill="#efc984"/><path d="m326.91 392.365c0-26.6-17.234-50.134-42.594-58.163l-74.961-23.733-.432-15.056-16.27-.572-79.119 2.78-72.397 22.921c-24.492 7.755-41.137 30.484-41.137 56.174v88.663c0 11.951 9.689 21.64 21.64 21.64h305.27z" fill="#4a80aa"/><path d="m344.136 320.543-72.397-22.921-65.847-2.314.609 21.201 72.397 22.921c24.492 7.754 41.137 30.483 41.137 56.173v88.663c0 .935-.079 1.85-.194 2.754h43.792c11.952 0 21.64-9.689 21.64-21.64v-88.663c0-25.691-16.645-48.42-41.137-56.174z" fill="#407093"/><g><path d="m271.738 297.621-79.086-2.78-79.119 2.78c-3.342 58.24 58.776 149.94 82.534 189.395 23.759-39.455 79.014-131.155 75.671-189.395z" fill="#e4f6ff"/></g><path d="m229.73 458.033-24.548-92.74h-25.058l-20.797 93.553 36.741 28.17z" fill="#ffe07d"/><g><g><g><g><g><g><g><g><path d="m236.944 293.284v-55.954h-88.649v55.954c0 24.48 44.325 51.171 44.325 51.171s44.324-26.692 44.324-51.171z" fill="#ffddce"/></g></g></g></g><g fill="#365e7d"><path d="m71.776 487.02v-50.628c0-4.268-3.459-7.726-7.726-7.726s-7.726 3.459-7.726 7.726v50.628z"/><path d="m328.917 487.02v-50.628c0-4.268-3.459-7.726-7.726-7.726s-7.726 3.459-7.726 7.726v50.628z"/></g></g></g></g><path d="m231.891 178.262v-85.078c-26.447 8.144-54.798 7.87-81.117-.825l-.032-.01c-11.655-3.85-23.664 4.829-23.664 17.104v9.342c0 9.424-7.64 17.064-17.064 17.064h-16.944v27.904c0 7.13 5.78 12.91 12.91 12.91 2.249 0 4.08 1.762 4.222 4.007 2.365 37.5 29.736 68.212 65.634 75.623 32.281-11.413 55.51-41.975 56.055-78.041z" fill="#ffddce"/><path d="m267.647 57.785h-.826c-4.574 0-8.282-3.708-8.282-8.282 0-13.544-10.979-24.523-24.523-24.523h-7.084v119.101h65.238v-61.773c0-13.544-10.979-24.523-24.523-24.523z" fill="#eabc6b"/><path d="m275.225 135.858c-9.424 0-17.064-7.64-17.064-17.064v-9.339c0-12.276-12.01-20.956-23.666-17.103-2.502.827-5.028 1.552-7.563 2.226v82.094c-.554 36.665-24.983 67.538-58.434 77.749 7.631 2.328 15.728 3.59 24.122 3.59 43.848 0 79.696-34.169 82.418-77.331.142-2.245 1.972-4.007 4.222-4.007 7.13 0 12.91-5.78 12.91-12.91v-27.904h-16.945z" fill="#ffcbbe"/></g><g><g><g><g><g><path d="m192.62 327.501-23.602 20.414c-5.828 5.04-14.707 4.085-19.329-2.079l-36.154-48.214 13.046-11.366c6.386-5.563 15.942-5.405 22.14.366z" fill="#f4fbff"/></g></g></g></g></g><g><g><g><g><g><g><path d="m192.653 327.501 23.602 20.414c5.828 5.04 14.707 4.085 19.329-2.079l36.154-48.214-13.046-11.366c-6.386-5.563-15.942-5.405-22.14.366z" fill="#f4fbff"/></g></g></g></g></g></g></g><g fill="#365e7d"><path d="m113.534 297.621-5.769 1.073c-12.735 2.368-23.837 10.284-29.93 21.714-2.681 5.029-4.647 10.635-4.647 16.256 0 8.467 13.098 18.949 21.043 24.529 2.727 1.915 3.15 6.115.846 8.607-4.495 4.862-10.09 13.132-8.397 22.99 4.895 28.5 56.133 70.501 88.065 94.227h21.322c-23.757-39.456-85.875-131.156-82.533-189.396z"/><path d="m217.383 487.016c31.932-23.725 83.17-65.727 88.065-94.227 1.693-9.858-3.901-18.128-8.397-22.99-2.304-2.492-1.881-6.692.846-8.607 7.946-5.58 21.043-16.062 21.043-24.529 0-4.414-1.212-8.817-3.031-12.94-5.903-13.384-18.608-22.522-33.095-24.551l-11.078-1.552c3.343 58.24-51.912 149.94-75.67 189.395h21.317z"/></g></g><path d="m166.45 349.647 13.674 15.646h25.058l13.369-15.779-25.898-22.013z" fill="#ffd064"/></g></g></svg>